<svg width="130" height="40" viewBox="0 0 130 40" fill="none" xmlns="http://www.w3.org/2000/svg">
<g clip-path="url(#clip0_1_1937)">
<path d="M119.526 25.545C119.097 25.0818 118.556 25.2949 118.057 25.3134C117.992 25.3134 117.885 25.5682 117.885 25.7118C117.866 26.4807 117.875 27.2542 117.875 28.0232C117.875 28.718 117.871 29.4174 117.875 30.1122C117.88 30.5337 117.922 30.5754 118.327 30.5893C118.551 30.5939 118.775 30.58 118.999 30.5893C119.292 30.6032 119.395 30.4735 119.39 30.191C119.381 29.3479 119.386 28.5003 119.395 27.6572C119.4 27.421 119.423 27.1801 119.474 26.9531C119.568 26.5316 119.857 26.3047 120.22 26.3186C120.575 26.3325 120.836 26.5918 120.892 27.0319C120.938 27.4302 120.975 27.8286 120.98 28.227C120.989 28.8801 120.966 29.5286 120.957 30.1817C120.952 30.5013 121.022 30.5754 121.344 30.5893C121.568 30.5986 121.791 30.5986 122.015 30.5893C122.369 30.5754 122.421 30.5245 122.425 30.1585C122.435 29.3572 122.43 28.5558 122.444 27.7545C122.449 27.5044 122.458 27.2403 122.537 27.0087C122.607 26.7957 122.728 26.5548 122.906 26.4297C123.348 26.1147 123.885 26.4297 123.95 27.0226C123.996 27.4627 124.024 27.9073 124.034 28.352C124.048 28.9727 124.043 29.5981 124.038 30.2187C124.034 30.4781 124.141 30.6078 124.411 30.5893C124.5 30.5847 124.588 30.5893 124.682 30.5893C125.358 30.5893 125.358 30.5893 125.572 30.0427C125.866 30.2512 126.961 32.0206 127.069 32.4977C126.91 32.544 126.747 32.6135 126.579 32.6413C126.421 32.6691 126.253 32.6598 126.09 32.6598C119.209 32.6598 112.332 32.6552 105.451 32.6645C104.355 32.6645 103.521 32.2383 102.919 31.3443C102.593 30.8626 102.5 30.3021 102.472 29.737C102.458 29.4128 102.458 29.0839 102.472 28.7596C102.481 28.4817 102.374 28.3428 102.08 28.3567C101.87 28.3659 101.66 28.3567 101.455 28.3567C69.9963 28.3567 38.5419 28.3567 7.0828 28.3613C6.46276 28.3613 6.40681 28.315 6.40215 27.7174C6.39749 26.5409 6.30426 26.6891 7.42313 26.6891C38.761 26.6891 70.0989 26.6891 101.437 26.6891C101.6 26.6891 101.763 26.6891 101.931 26.6845C102.462 26.6799 102.444 26.6752 102.476 26.1286C102.5 25.6886 102.528 25.2393 102.644 24.8178C102.985 23.5671 104.276 22.8491 105.339 22.8491C112.262 22.8538 119.185 22.8538 126.113 22.8491C127.595 22.8491 129.022 23.9099 129.055 25.8415C129.073 27.1292 129.059 28.4215 129.055 29.7092C129.055 29.913 129.008 30.1215 128.98 30.3253C128.929 30.6773 128.854 30.7329 128.505 30.5939C127.796 30.316 127.115 29.9594 126.388 29.7509C125.623 29.5332 125.386 29.1071 125.484 28.3613C125.544 27.8796 125.521 27.3839 125.484 26.8976C125.46 26.5641 125.386 26.2213 125.26 25.9109C125.036 25.3412 124.295 24.9706 123.614 25.1235C123.264 25.2022 122.92 25.3829 122.616 25.5867C122.276 25.809 122.295 25.8461 121.987 25.5821C121.46 25.1235 120.864 24.9799 120.202 25.2022C119.954 25.2763 119.745 25.4246 119.526 25.545ZM111.521 27.9537C111.572 29.5193 112.509 30.7422 114.346 30.7422C116.034 30.7468 117.101 29.6444 117.134 27.9676C117.167 26.3 115.964 25.0633 114.341 25.0911C112.644 25.1281 111.568 26.2074 111.521 27.9537ZM110.957 26.7447C110.957 26.3927 110.938 26.1008 110.962 25.809C110.989 25.4755 110.808 25.3319 110.523 25.2393C109.512 24.9058 108.286 25.2347 107.605 26.0545C106.663 27.1894 106.663 28.9171 107.805 30.052C108.481 30.719 109.74 30.946 110.593 30.5662C110.719 30.5106 110.892 30.404 110.915 30.2975C110.989 29.9177 110.989 29.5239 110.915 29.1163C109.875 29.6212 109.269 29.5749 108.808 28.9959C108.36 28.4354 108.36 27.4812 108.803 26.8698C109.204 26.3139 109.843 26.263 110.957 26.7447ZM105.274 28.9079C104.728 28.8801 104.285 29.2414 104.257 29.7463C104.22 30.3207 104.574 30.7422 105.124 30.7792C105.632 30.8116 106.113 30.404 106.127 29.9177C106.146 29.3757 105.768 28.931 105.274 28.9079Z" fill="#164951"/>
<path d="M9.6797 10.6899C10.5561 9.84684 11.5398 9.42532 12.6867 9.53186C13.8056 9.6384 14.7379 10.1248 15.3766 11.1207C15.4932 11.028 15.5864 10.9817 15.6424 10.9076C16.7473 9.5226 18.8498 9.12887 20.3883 9.92558C21.344 10.4212 21.7776 11.2874 21.9547 12.2833C22.0666 12.9225 22.1226 13.5756 22.1272 14.2241C22.1505 16.2252 22.1365 18.2262 22.1365 20.2273C22.1365 20.7831 22.1132 20.8016 21.5585 20.8063C20.8405 20.8109 20.1272 20.8109 19.4093 20.8063C18.9571 20.8016 18.9244 20.7738 18.9244 20.3245C18.9198 18.4115 18.9338 16.4985 18.9151 14.5854C18.9105 14.1315 18.8498 13.6683 18.7566 13.2236C18.6167 12.5334 18.1599 12.1304 17.5538 12.0934C16.9338 12.0563 16.3464 12.4547 16.1692 13.1356C16.0247 13.6914 15.9081 14.2658 15.8941 14.8356C15.8615 16.6143 15.8801 18.393 15.8801 20.1717C15.8801 20.2921 15.8755 20.4079 15.8755 20.5283C15.8708 20.709 15.7776 20.8016 15.5957 20.8016C14.7286 20.8016 13.8662 20.8016 12.999 20.8016C12.7799 20.8016 12.6773 20.6766 12.6727 20.4635C12.6727 20.3431 12.668 20.2273 12.668 20.1068C12.668 18.2818 12.6773 16.4614 12.6587 14.6364C12.654 14.1361 12.5981 13.6312 12.4862 13.1449C12.2904 12.2972 11.5725 11.9313 10.738 12.1814C10.2485 12.3296 10.0107 12.7141 9.89415 13.1449C9.74963 13.6822 9.6424 14.2473 9.63308 14.8031C9.60044 16.6096 9.61909 18.4208 9.61909 20.2273C9.61909 20.797 9.61443 20.8016 9.05033 20.8063C8.35103 20.8063 7.64707 20.8109 6.94777 20.8063C6.52819 20.8016 6.47225 20.7507 6.47225 20.3477C6.46758 17.0126 6.46758 13.6776 6.47225 10.3425C6.47225 9.93485 6.52353 9.8839 6.94311 9.87926C7.64241 9.87 8.34637 9.87463 9.04566 9.87926C9.58179 9.87926 9.5818 9.8839 9.62376 10.4166C9.62842 10.4722 9.64706 10.5278 9.6797 10.6899Z" fill="#164951"/>
<path d="M63.6615 20.056C63.6429 20.1625 63.6242 20.2413 63.6196 20.3293C63.5869 20.8018 63.5869 20.811 63.1347 20.811C62.3888 20.8156 61.6429 20.8156 60.8969 20.811C60.4307 20.8064 60.3934 20.7647 60.3888 20.2922C60.3841 18.231 60.3888 16.1743 60.3888 14.1131C60.3888 10.2916 60.3888 6.46557 60.3888 2.64412C60.3888 2.01416 60.3888 2.01416 61.0368 2.01416C61.7081 2.01416 62.3795 2.01416 63.0508 2.01416C63.6056 2.01416 63.6149 2.02343 63.6149 2.5978C63.6149 5.10374 63.6149 7.60505 63.6149 10.111C63.6149 10.2685 63.6149 10.426 63.6149 10.69C63.8853 10.4908 64.0624 10.3426 64.2536 10.2175C66.0391 9.05025 68.2396 9.39765 69.6708 10.69C70.8876 11.7924 71.4704 13.2006 71.5823 14.8171C71.6708 16.1002 71.4797 17.3323 70.8597 18.4718C69.8666 20.3061 68.3422 21.2789 66.2023 21.163C65.3771 21.1167 64.6359 20.8203 64.0065 20.2737C63.9272 20.2042 63.848 20.1394 63.7687 20.0745C63.7594 20.0699 63.7408 20.0745 63.6615 20.056ZM63.3398 14.919C63.3165 16.2068 63.545 16.758 64.0065 17.3694C64.7198 18.3143 65.9039 18.6386 66.9809 17.9762C68.6312 16.9571 68.9203 14.127 67.0927 12.7837C66.3748 12.2556 65.5683 12.2 64.7804 12.654C63.7687 13.2422 63.3818 14.1825 63.3398 14.919Z" fill="#164951"/>
<path d="M95.694 13.6218C95.8759 13.4087 96.0577 13.2003 96.2348 12.9826C96.9808 12.0747 97.7267 11.1715 98.4633 10.259C98.6731 9.99496 98.9015 9.856 99.2558 9.86526C100.267 9.88379 101.284 9.86989 102.3 9.87452C102.459 9.87452 102.617 9.89768 102.836 9.91158C102.766 10.0598 102.738 10.157 102.678 10.2265C102.379 10.5554 102.076 10.8843 101.769 11.2039C100.748 12.26 99.7173 13.3115 98.6964 14.3676C98.384 14.6918 98.3794 14.7011 98.6731 15.0624C100.03 16.7346 101.391 18.4021 102.748 20.0743C102.901 20.2642 103.046 20.468 103.251 20.7367C103.041 20.7737 102.92 20.8154 102.799 20.8154C101.68 20.82 100.561 20.8154 99.4423 20.8247C99.1719 20.8293 99.0041 20.7089 98.8502 20.5004C97.8759 19.2266 96.8922 17.9621 95.9132 16.6929C95.8432 16.6002 95.7826 16.503 95.7174 16.4103C95.6707 16.4288 95.6288 16.452 95.5822 16.4705C95.5822 16.6234 95.5822 16.7809 95.5822 16.9337C95.5822 18.0593 95.5822 19.1849 95.5822 20.3151C95.5822 20.7922 95.5542 20.82 95.0787 20.82C94.3327 20.8247 93.5868 20.8247 92.8409 20.82C92.426 20.8154 92.3794 20.7644 92.3654 20.3615C92.3607 20.2873 92.3654 20.2132 92.3654 20.1391C92.3654 14.3166 92.3654 8.48954 92.3654 2.66705C92.3654 2.56515 92.3654 2.45861 92.3701 2.3567C92.3794 2.14363 92.4866 2.02783 92.7057 2.02783C93.5542 2.02783 94.4073 2.02783 95.2558 2.02783C95.4796 2.02783 95.5822 2.139 95.5822 2.3567C95.5822 2.45861 95.5822 2.56515 95.5822 2.66705C95.5822 6.15035 95.5822 9.63366 95.5822 13.1169C95.5822 13.2837 95.5961 13.4458 95.6008 13.6126C95.6288 13.6079 95.6614 13.6126 95.694 13.6218Z" fill="#164951"/>
<path d="M85.7449 21.1909C83.5957 21.1307 81.9406 20.4127 80.8171 18.7035C80.211 17.7771 79.9173 16.7488 79.8894 15.6371C79.8614 14.4744 80.0479 13.3674 80.6166 12.3391C81.3766 10.9634 82.5374 10.0925 84.0619 9.71734C85.8894 9.26803 87.6143 9.51353 89.1807 10.5928C90.3696 11.4127 91.0316 12.5892 91.3113 13.9696C91.647 15.6232 91.4558 17.2213 90.5421 18.6757C89.6889 20.0375 88.4302 20.8157 86.8451 21.0705C86.4348 21.1353 86.0199 21.1631 85.7449 21.1909ZM83.1248 15.3777C83.2087 16.2254 83.4558 17.0128 84.0898 17.6428C84.985 18.5321 86.3556 18.5507 87.246 17.6474C88.5281 16.3458 88.4908 14.2567 87.1901 12.9737C86.5607 12.353 85.5351 12.1816 84.7472 12.5799C83.605 13.1543 83.2413 14.1919 83.1248 15.3777Z" fill="#164951"/>
<path d="M59.4945 15.1324C59.4618 16.8602 59.0795 18.2173 58.0679 19.3476C57.1774 20.3342 56.0585 20.89 54.7392 21.0892C53.6203 21.256 52.5341 21.1772 51.4851 20.7835C49.7742 20.1443 48.6693 18.9214 48.1984 17.1705C47.7182 15.3779 47.8627 13.6362 48.8651 12.0336C49.6856 10.7134 50.907 9.97226 52.4362 9.65728C53.6436 9.41178 54.8138 9.49979 55.9513 9.92594C57.8254 10.6254 58.9117 12.0058 59.3266 13.9234C59.4245 14.3959 59.4618 14.8869 59.4945 15.1324ZM56.259 15.4242C56.2077 14.4191 55.9234 13.6085 55.2194 12.96C54.3476 12.1586 53.0376 12.1586 52.1844 12.9739C50.8977 14.206 50.8604 16.4062 52.1098 17.6661C52.7672 18.3285 53.7882 18.5092 54.6273 18.1062C55.7975 17.5503 56.1425 16.5174 56.259 15.4242Z" fill="#164951"/>
<path d="M112.852 17.7861C112.562 18.6245 112.124 19.3286 111.476 19.8984C109.509 21.6308 106.241 21.5196 104.455 20.1207C103.322 19.2314 102.683 18.0594 102.464 16.6606C102.278 15.4609 102.343 14.2704 102.716 13.1031C103.313 11.241 104.52 10.046 106.479 9.64301C107.798 9.36972 109.066 9.49016 110.264 10.0969C111.542 10.7454 112.287 11.8386 112.632 13.1819C112.819 13.9045 112.866 14.6688 112.931 15.4192C112.973 15.8916 112.921 15.9194 112.437 15.9194C110.423 15.9194 108.409 15.9194 106.395 15.9194C106.273 15.9194 106.143 15.887 106.04 15.9333C105.942 15.975 105.797 16.1001 105.802 16.1742C105.867 17.0311 106.031 17.8603 106.824 18.3883C107.621 18.921 108.852 18.7172 109.448 17.9622C109.56 17.8232 109.672 17.6796 109.751 17.5221C109.863 17.2998 110.026 17.2164 110.259 17.2581C111.066 17.3971 111.873 17.5453 112.674 17.6889C112.716 17.6981 112.749 17.7306 112.852 17.7861ZM105.872 13.8165C106.064 13.835 106.194 13.8582 106.325 13.8582C107.336 13.8628 108.348 13.8582 109.36 13.8582C109.434 13.8582 109.509 13.8535 109.583 13.8489C109.747 13.835 109.812 13.747 109.807 13.5849C109.77 12.5195 108.493 11.5792 107.439 11.8617C106.469 12.1165 106.106 12.8669 105.872 13.8165Z" fill="#164951"/>
<path d="M33.4841 17.8003C32.906 19.3289 31.8897 20.3665 30.3699 20.876C29.1019 21.3021 27.8198 21.279 26.5471 20.8667C25.1439 20.4128 24.1183 19.5049 23.5728 18.1662C22.6824 15.9846 22.7896 13.8075 23.9831 11.7555C24.6684 10.5836 25.7499 9.92123 27.1019 9.6572C28.3093 9.42097 29.4702 9.50898 30.6077 9.96755C31.7359 10.4261 32.4725 11.2645 32.962 12.3438C33.4142 13.335 33.568 14.3819 33.54 15.4611C33.5261 15.878 33.5027 15.9104 33.0692 15.9104C31.0692 15.9151 29.0739 15.9104 27.0739 15.9104C26.4213 15.9104 26.342 15.9614 26.4679 16.5867C26.5518 17.0268 26.715 17.4761 26.9387 17.8652C27.5401 18.9027 29.0879 18.912 29.7918 18.2311C30.0249 18.0041 30.2068 17.7262 30.4352 17.4946C30.5377 17.3881 30.7056 17.2584 30.8221 17.2723C31.6473 17.3881 32.4678 17.5409 33.2883 17.6845C33.3396 17.6984 33.3862 17.7447 33.4841 17.8003ZM28.4958 13.8677C28.8968 13.8677 29.2977 13.8677 29.7033 13.8677C30.5517 13.8677 30.6123 13.789 30.2674 13.0293C29.8758 12.1677 28.934 11.4637 27.8711 11.9083C27.1905 12.1909 26.8082 12.7375 26.6077 13.4277C26.5098 13.7704 26.5704 13.8584 26.9341 13.8677C27.4562 13.877 27.9784 13.8677 28.4958 13.8677Z" fill="#164951"/>
<path d="M122.313 17.4388C122.481 17.5778 122.626 17.6936 122.77 17.8187C123.311 18.2772 123.88 18.6756 124.635 18.6663C125.218 18.6617 125.67 18.3282 125.801 17.814C125.912 17.3786 125.689 16.9062 125.195 16.6375C124.831 16.443 124.43 16.3133 124.052 16.1372C123.595 15.9242 123.111 15.7435 122.696 15.4656C121.94 14.9561 121.521 14.2335 121.484 13.2978C121.428 11.8016 122.085 10.3101 123.684 9.74505C124.257 9.54123 124.845 9.45323 125.442 9.51807C126.365 9.61535 127.264 9.80989 128.071 10.3055C128.174 10.3657 128.271 10.4352 128.365 10.5047C128.509 10.6112 128.537 10.7363 128.43 10.8845C128.034 11.4218 127.637 11.9545 127.222 12.515C126.896 12.3251 126.621 12.1212 126.313 11.9962C126.048 11.885 125.745 11.8202 125.456 11.8155C125.078 11.8109 124.696 12.1676 124.612 12.5057C124.537 12.8207 124.663 13.1357 125.064 13.3348C125.684 13.6498 126.346 13.8861 126.975 14.1964C127.358 14.3863 127.74 14.604 128.066 14.8773C128.971 15.6416 129.176 16.6838 129.027 17.7862C128.798 19.4353 127.824 20.496 126.225 20.9499C124.332 21.4873 122.658 21.0565 121.227 19.7224C120.826 19.3473 120.836 19.3102 121.167 18.8887C121.465 18.4996 121.759 18.1105 122.057 17.7214C122.122 17.638 122.206 17.5593 122.313 17.4388Z" fill="#164951"/>
<path d="M34.8632 16.6886C34.8632 15.5028 34.8632 14.317 34.8632 13.1312C34.8632 12.6355 34.8492 12.6217 34.3737 12.6124C33.791 12.5985 33.7863 12.5985 33.7863 11.9963C33.7863 11.4497 33.7816 10.8985 33.791 10.3519C33.7956 9.93047 33.8329 9.89804 34.2525 9.88415C34.3271 9.87951 34.4017 9.87951 34.4763 9.88415C34.7653 9.90267 34.8726 9.76371 34.8679 9.48116C34.8586 8.63812 34.8632 7.79046 34.8679 6.94742C34.8679 6.22482 34.8679 6.22482 35.5765 6.22482C36.2618 6.22482 36.9471 6.21556 37.6371 6.22482C38.024 6.22945 38.0567 6.2943 38.052 6.67413C38.0334 7.54959 38.024 8.42505 38.0334 9.29588C38.038 9.83319 38.108 9.87951 38.6348 9.88415C38.9611 9.88878 39.2921 9.88878 39.6184 9.88878C39.8562 9.88878 39.9728 9.99532 39.9728 10.2408C39.9681 10.9078 39.9681 11.5748 39.9728 12.2418C39.9728 12.5058 39.8609 12.6217 39.5951 12.617C39.2222 12.6124 38.8492 12.6217 38.4763 12.6124C38.2245 12.6078 38.0753 12.6911 38.066 12.9598C38.0567 13.196 38.0241 13.4323 38.0241 13.6685C38.0194 15.8641 38.024 18.0551 38.0194 20.2506C38.0194 20.8111 38.0147 20.8111 37.4366 20.8158C36.7513 20.8158 36.066 20.8204 35.376 20.8158C34.9145 20.8111 34.8679 20.7648 34.8679 20.297C34.8586 19.088 34.8632 17.8883 34.8632 16.6886Z" fill="#164951"/>
<path d="M75.7524 10.7176C76.1347 10.4304 76.4424 10.1478 76.7967 9.93937C77.6079 9.45764 78.4797 9.39279 79.3841 9.67071C79.5846 9.73093 79.7524 9.8282 79.7198 10.0691C79.6079 10.8889 79.4913 11.7088 79.3701 12.5287C79.3608 12.5796 79.3188 12.6306 79.2815 12.7093C79.0531 12.6213 78.8386 12.5148 78.6149 12.4592C77.2536 12.1164 76.1394 12.7835 75.8923 14.1592C75.7618 14.8679 75.7245 15.5998 75.7105 16.3224C75.6825 17.624 75.7058 18.9302 75.7012 20.2318C75.7012 20.7784 75.6639 20.8155 75.1184 20.8155C74.4191 20.8155 73.7152 20.8155 73.0159 20.8155C72.517 20.8108 72.4844 20.783 72.4844 20.2828C72.4844 18.0177 72.4844 15.748 72.4844 13.4829C72.4844 12.4731 72.4844 11.468 72.4844 10.4582C72.4844 9.88842 72.4984 9.87452 73.0485 9.87452C73.7338 9.87452 74.4191 9.87452 75.1044 9.87452C75.6592 9.87452 75.6639 9.88379 75.7058 10.4396C75.7105 10.5184 75.7338 10.6018 75.7524 10.7176Z" fill="#164951"/>
<path d="M117.027 10.801C117.344 10.5324 117.554 10.3239 117.791 10.1479C118.71 9.46235 119.721 9.34191 120.794 9.70785C120.901 9.7449 121.041 9.92092 121.027 10.0228C120.938 10.9029 120.822 11.783 120.705 12.7094C120.542 12.6631 120.425 12.6492 120.323 12.5983C119.19 12.0378 117.498 12.4315 117.199 14.1871C117.139 14.553 117.078 14.9189 117.069 15.2895C117.032 16.8875 117.013 18.4902 116.99 20.0883C116.99 20.2226 116.985 20.357 116.99 20.4866C116.994 20.709 116.882 20.8109 116.663 20.8109C115.829 20.8109 114.994 20.8109 114.155 20.8109C113.931 20.8109 113.824 20.7044 113.829 20.4866C113.829 20.3847 113.829 20.2782 113.829 20.1763C113.829 16.9617 113.829 13.7424 113.829 10.5277C113.829 10.4397 113.833 10.3517 113.829 10.2591C113.819 9.99966 113.941 9.8746 114.202 9.8746C115.036 9.8746 115.871 9.8746 116.71 9.8746C116.957 9.8746 117.059 9.9904 117.032 10.2405C117.013 10.3934 117.027 10.5509 117.027 10.801Z" fill="#164951"/>
<path d="M44.3614 10.8429C44.4407 10.7178 44.4966 10.565 44.5992 10.4677C45.5362 9.60613 46.6132 9.30041 47.8579 9.68024C48.0584 9.74046 48.2309 9.82846 48.1983 10.0694C48.091 10.9031 47.9745 11.7369 47.8579 12.5707C47.8533 12.5938 47.8206 12.617 47.7833 12.6633C47.5036 12.5799 47.2146 12.4734 46.9162 12.4132C45.7274 12.1677 44.7157 12.7652 44.436 13.9418C44.2822 14.581 44.2076 15.2526 44.1889 15.915C44.1516 17.3509 44.1796 18.7869 44.1749 20.2228C44.1749 20.7787 44.1516 20.8018 43.5968 20.8018C42.9255 20.8065 42.2542 20.8065 41.5829 20.8018C41.0467 20.8018 41.0234 20.7833 41.0234 20.2552C41.0234 18.6572 41.0234 17.0545 41.0234 15.4564C41.0234 13.7657 41.0234 12.0797 41.0234 10.389C41.0234 9.88405 41.0421 9.87015 41.5549 9.86552C42.2402 9.86089 42.9255 9.86552 43.6108 9.86552C44.1423 9.86552 44.1609 9.88405 44.1749 10.4121C44.1796 10.514 44.1889 10.6159 44.1936 10.7178C44.2542 10.7688 44.3055 10.8058 44.3614 10.8429Z" fill="#164951"/>
<path d="M135.055 38.362C133.867 37.3337 132.818 36.4211 131.736 35.4808C131.163 35.9487 131.032 36.6481 130.669 37.2966C130.547 37.1391 130.44 37.0233 130.365 36.8936C129.27 35.0917 128.179 33.2899 127.088 31.4926C126.86 31.1174 126.636 30.7422 126.449 30.3115C129.009 31.2518 131.503 32.294 134.09 33.3547C133.517 33.8411 132.86 34.1005 132.44 34.7165C132.855 35.0871 133.247 35.4438 133.643 35.7912C134.202 36.2775 134.771 36.7546 135.331 37.2456C135.643 37.5236 135.634 37.5745 135.363 37.8941C135.261 38.0146 135.186 38.1674 135.055 38.362Z" fill="#164951"/>
<path d="M115.661 27.9395C115.535 28.273 115.465 28.6204 115.288 28.8937C114.836 29.5932 113.861 29.5978 113.372 28.903C112.91 28.2545 112.929 27.5273 113.428 26.8881C113.959 26.2025 114.887 26.272 115.33 27.0178C115.484 27.2864 115.544 27.6153 115.661 27.9395Z" fill="#164951"/>
</g>
<defs>
<clipPath id="clip0_1_1937">
<rect width="130" height="40" fill="white"/>
</clipPath>
</defs>
</svg>
