<svg width="126" height="28" viewBox="0 0 126 28" fill="none" xmlns="http://www.w3.org/2000/svg">
<g clip-path="url(#clip0_1_1969)">
<path d="M92.1972 10.6305C91.9806 7.83109 89.8433 5.87394 87.0415 5.84473C84.8385 5.82039 83.0736 6.6456 81.8541 8.61249C81.0118 6.66508 79.4441 5.9348 77.4724 5.84229C75.5006 5.74979 73.9183 6.47521 72.7475 8.15242C72.7475 7.61688 72.7329 7.08134 72.7475 6.5458C72.7596 6.20987 72.6744 6.05895 72.2971 6.05895C71.3648 6.08086 70.43 6.07599 69.4977 6.05895C69.1788 6.05895 69.0547 6.14171 69.0547 6.48251C69.0644 11.2472 69.0644 16.0102 69.0547 20.7716C69.0547 21.1563 69.2178 21.2171 69.5415 21.2122C70.396 21.1952 71.2455 21.1733 72.1073 21.2122C72.6379 21.239 72.7572 21.0589 72.7523 20.555C72.728 17.9893 72.7523 15.4236 72.7523 12.8578C72.7203 12.1233 72.8516 11.3909 73.1369 10.7133C73.692 9.53995 74.8239 8.9046 76.1895 9.00928C77.3604 9.09448 78.2659 9.87344 78.6238 11.1125C78.7563 11.601 78.8178 12.106 78.8064 12.612C78.8064 15.2751 78.8064 17.9382 78.7942 20.6012C78.7942 21.0686 78.8916 21.2609 79.4003 21.2342C80.2161 21.1916 81.0335 21.1916 81.8492 21.2342C82.3653 21.2609 82.5064 21.1076 82.5016 20.5866C82.4748 17.9625 82.5016 15.3384 82.487 12.7142C82.4506 11.9536 82.6187 11.1971 82.9738 10.5234C83.6554 9.3452 84.7289 8.9046 86.0313 9.02875C87.2484 9.14316 87.9787 9.90022 88.3608 11.0273C88.528 11.5668 88.6053 12.1301 88.5897 12.6948C88.5897 15.3384 88.5897 17.982 88.5775 20.6256C88.5775 21.1124 88.7211 21.2585 89.2007 21.2366C90.0356 21.2001 90.873 21.2025 91.708 21.2366C92.1534 21.2536 92.2703 21.1003 92.2654 20.6718C92.2459 18.61 92.2654 16.5506 92.2654 14.4888C92.2508 13.1938 92.297 11.9061 92.1972 10.6305Z" fill="#164951"/>
<path d="M50.9493 11.0027C50.8373 8.34688 49.0554 6.37757 46.6284 5.96131C44.2769 5.55722 42.22 6.07085 40.6475 8.08885V7.51923C40.6475 5.20668 40.6475 2.89413 40.6475 0.581579C40.6475 0.172623 40.5744 -0.0148195 40.107 0.00708887C39.2331 0.0436029 38.3568 0.0387343 37.4829 0.00708887C37.0593 -0.00751672 36.9644 0.145845 36.9668 0.54263C36.9839 2.60202 36.9668 4.6614 36.9668 6.72323C36.9668 11.3678 36.9668 16.0148 36.9668 20.6594C36.9668 21.0878 37.0666 21.2436 37.517 21.2241C38.3519 21.1901 39.1893 21.1876 40.0243 21.2241C40.5111 21.2461 40.6572 21.1073 40.6523 20.6131C40.628 18.1059 40.6523 15.5986 40.6523 13.0913C40.6523 12.0713 40.869 11.1122 41.5506 10.3235C41.9538 9.81548 42.5 9.43986 43.1187 9.24505C43.7374 9.05025 44.4002 9.04519 45.0218 9.23052C46.3582 9.57375 47.0447 10.5377 47.276 11.8498C47.3323 12.195 47.3584 12.5444 47.3539 12.8941C47.3539 15.4793 47.366 18.0645 47.3539 20.6497C47.3539 21.0611 47.4293 21.2436 47.8918 21.2241C48.7852 21.1876 49.681 21.2095 50.5695 21.2241C50.8276 21.2241 51.0199 21.2095 51.0174 20.8614C50.9858 17.5703 51.0856 14.2816 50.9493 11.0027Z" fill="#164951"/>
<path d="M13.3447 0.00244141C9.12535 0.0300297 4.90596 0.0300297 0.686564 0.00244141C0.165631 0.00244141 -0.00476757 0.116849 0.000100963 0.669428C0.0268779 3.95325 0.0122721 7.24194 0.0122721 10.5209C0.0122721 13.7999 0.0122721 17.1275 0.0122721 20.4308C0.0122721 20.8738 0.10234 21.0491 0.586759 21.0296C1.51665 20.9907 2.45384 20.9834 3.38616 21.0296C3.93144 21.0588 4.02151 20.8495 4.01664 20.3651C3.99473 17.8602 4.01664 15.3529 3.99473 12.8456C3.99473 12.3417 4.11644 12.1835 4.64225 12.1884C6.91585 12.2176 9.19189 12.1884 11.4582 12.2103C11.8988 12.2103 12.0862 12.1105 12.0595 11.6309C12.0169 10.9134 12.0169 10.1941 12.0595 9.4766C12.096 8.92646 11.945 8.74632 11.3633 8.74632C9.08965 8.7804 6.81361 8.74632 4.54731 8.77066C4.0994 8.77066 3.98986 8.63434 3.99717 8.20835C4.02151 6.83055 4.02881 5.45032 3.99717 4.0701C3.99717 3.58324 4.10427 3.40554 4.63738 3.41041C7.55849 3.43962 10.4796 3.41041 13.4007 3.43476C13.8876 3.43476 14.1018 3.34712 14.0629 2.80428C14.013 2.10573 14.013 1.4045 14.0629 0.705948C14.0775 0.170409 13.9241 0.00244141 13.3447 0.00244141Z" fill="#164951"/>
<path d="M97.4603 14.3646C99.1521 14.3913 100.844 14.3767 102.538 14.3767H107.616C107.886 14.3767 108.088 14.3767 108.12 14.0043C108.453 10.1654 106.416 6.43859 102.005 5.91035C98.9646 5.54765 96.3478 6.33148 94.6024 9.03839C92.8011 11.8281 92.9739 15.8349 94.9554 18.4931C96.8493 21.032 100.223 22.0714 103.563 21.0953C105.846 20.4259 107.429 19.0067 108.103 16.6601C108.227 16.2243 108.103 16.1245 107.684 16.1343C106.81 16.1586 105.934 16.1537 105.058 16.1343C104.925 16.112 104.79 16.1405 104.678 16.2141C104.566 16.2877 104.486 16.4009 104.454 16.5311C104.215 17.1573 103.741 17.665 103.132 17.9454C102.542 18.2522 101.889 18.4165 101.224 18.4248C100.56 18.4332 99.9024 18.2855 99.3053 17.9935C98.7081 17.7016 98.1878 17.2736 97.7862 16.7439C97.3845 16.2142 97.1128 15.5977 96.9929 14.9439C96.9077 14.5082 96.9929 14.3646 97.4603 14.3646ZM97.0708 11.5871C97.3507 9.81735 98.7261 8.6489 100.632 8.60265C102.594 8.55396 104.016 9.63965 104.374 11.4191C104.459 11.8378 104.374 11.9644 103.938 11.9546C102.85 11.9279 101.759 11.9546 100.671 11.9546H97.4603C97.2363 11.9522 97.0075 11.9985 97.0708 11.5944V11.5871Z" fill="#164951"/>
<path d="M60.1358 5.84489C55.4937 5.81812 52.149 9.04352 52.1271 13.5761C52.1052 18.1087 55.3817 21.4145 60.0019 21.4534C64.5637 21.4923 67.9279 18.2158 67.9474 13.71C67.9717 9.15549 64.7049 5.86923 60.1358 5.84489ZM61.2823 18.0917C58.6752 18.8439 56.2556 17.2251 55.9075 14.489C55.8165 13.8326 55.8329 13.1658 55.9562 12.5148C56.4065 10.2777 58.0472 8.94371 60.2429 9.02648C62.3412 9.10438 63.9138 10.6331 64.1767 12.8531C64.2083 13.1233 64.2132 13.396 64.2205 13.5274C64.2108 15.8789 63.091 17.5659 61.2823 18.0868V18.0917Z" fill="#164951"/>
<path d="M35.0726 5.88135C34.1598 5.91786 33.2445 5.90812 32.3316 5.88135C32.2613 5.86998 32.1895 5.87281 32.1203 5.88967C32.0511 5.90653 31.986 5.93708 31.9289 5.97951C31.8717 6.02194 31.8236 6.07539 31.7874 6.13672C31.7512 6.19804 31.7277 6.26599 31.7182 6.33655C31.5454 6.93295 31.3336 7.51717 31.1364 8.10627L28.4368 16.1807C28.2711 15.9811 28.1596 15.7422 28.1131 15.487C27.0931 12.4685 26.0707 9.45485 25.0727 6.42905C24.9315 6.00062 24.7294 5.85944 24.2888 5.87892C23.4733 5.913 22.6554 5.87892 21.8375 5.87892C21.1072 5.87892 21.1072 5.87891 21.3507 6.55807C23.0449 11.1702 24.7384 15.7823 26.431 20.3944C26.5162 20.6257 26.6744 20.8545 26.5697 21.1247C26.302 21.8112 26.1145 22.5317 25.7567 23.1817C25.3989 23.8316 24.8536 24.2308 24.0527 24.187C23.6657 24.1651 23.2737 24.187 22.8867 24.187C22.6189 24.187 22.4972 24.2698 22.5021 24.5546C22.5134 25.2914 22.5134 26.0298 22.5021 26.7698C22.5021 27.0448 22.5994 27.1544 22.8745 27.1495C23.6048 27.1325 24.3521 27.1495 25.0897 27.1154C26.7158 27.0522 27.8672 26.2415 28.6194 24.8224C29.0257 23.9833 29.3754 23.1181 29.6661 22.2323C31.5892 16.9792 33.5163 11.7284 35.4475 6.48017C35.6252 6.042 35.6179 5.85944 35.0726 5.88135Z" fill="#164951"/>
<path d="M117.41 12.2758C116.923 12.1687 116.453 12.103 115.973 12.0324C115.095 11.8839 114.189 11.8547 113.357 11.4871C113.116 11.4014 112.907 11.2457 112.755 11.0401C112.604 10.8345 112.517 10.5883 112.507 10.3332C112.48 10.0602 112.533 9.78517 112.66 9.54177C112.786 9.29838 112.981 9.09717 113.22 8.96274C114.627 8.09128 116.691 8.79235 117.254 10.3478C117.354 10.6302 117.458 10.7592 117.772 10.7519C118.607 10.73 119.445 10.7252 120.282 10.7519C120.681 10.7641 120.74 10.5937 120.686 10.2651C120.564 9.35003 120.177 8.49055 119.574 7.79186C117.514 5.43793 112.957 5.17746 110.567 7.1979C108.505 8.9384 108.478 13.4004 111.988 14.4155C112.794 14.6391 113.61 14.8195 114.435 14.9559C115.18 15.0898 115.942 15.1872 116.626 15.5523C117.561 16.0562 117.736 17.1394 117.01 17.8429C115.82 19.0017 113.06 18.6243 112.463 17.0908C112.113 16.1828 111.626 16.0538 110.847 16.1511C110.73 16.1584 110.613 16.1584 110.496 16.1511C110.09 16.1511 109.678 16.1779 109.279 16.1511C108.831 16.1171 108.761 16.3142 108.822 16.7013C109.116 18.5635 110.053 19.9778 111.779 20.7616C112.771 21.2242 113.85 21.4724 114.945 21.49C116.04 21.5076 117.126 21.2943 118.133 20.8639C119.683 20.2358 120.696 19.0771 120.871 17.3731C121.192 14.0917 119.632 12.7772 117.41 12.2758Z" fill="#164951"/>
<path d="M19.2619 10.5742C19.2619 7.27094 19.2497 3.96521 19.2619 0.66191C19.2619 0.175057 19.1694 -0.0269822 18.629 0.00466319C17.7938 0.0484795 16.9569 0.0484795 16.1217 0.00466319C15.6348 -0.0196795 15.4523 0.104462 15.4644 0.637566C15.4985 2.52169 15.4644 4.40825 15.4644 6.29237C15.4644 10.9986 15.4644 15.7049 15.4644 20.4111C15.4644 20.8055 15.4644 21.0684 16.0048 21.0391C16.8595 20.9953 17.7159 20.9953 18.5706 21.0391C19.0866 21.0635 19.2619 20.932 19.257 20.377C19.2473 17.1054 19.2619 13.8386 19.2619 10.5742Z" fill="#164951"/>
<path d="M124.035 5.84474C123.503 5.8428 122.991 6.05253 122.613 6.42778C122.235 6.80303 122.021 7.31308 122.02 7.84571C122.018 8.37833 122.227 8.88991 122.603 9.2679C122.978 9.64589 123.488 9.85934 124.021 9.86128C124.284 9.86224 124.546 9.81124 124.79 9.7112C125.034 9.61116 125.256 9.46404 125.443 9.27824C125.63 9.09243 125.779 8.87157 125.88 8.62828C125.982 8.385 126.035 8.12404 126.036 7.86031C126.037 7.59658 125.986 7.33524 125.886 7.09122C125.786 6.8472 125.639 6.62528 125.453 6.43811C125.267 6.25095 125.046 6.10221 124.803 6.0004C124.56 5.89859 124.299 5.8457 124.035 5.84474ZM124.035 9.59108C123.811 9.5934 123.589 9.55079 123.382 9.4658C123.176 9.3808 122.988 9.25514 122.83 9.09625C122.673 8.93735 122.549 8.74847 122.465 8.54077C122.382 8.33308 122.341 8.1108 122.346 7.88709C122.352 7.55848 122.455 7.23899 122.642 6.96854C122.828 6.69809 123.091 6.48867 123.396 6.36644C123.701 6.24421 124.035 6.21458 124.357 6.28127C124.679 6.34796 124.974 6.508 125.205 6.7414C125.437 6.9748 125.594 7.27122 125.658 7.59361C125.722 7.916 125.69 8.25009 125.565 8.55411C125.44 8.85814 125.228 9.11864 124.956 9.30306C124.684 9.48749 124.364 9.58767 124.035 9.59108Z" fill="#164951"/>
<path d="M124.469 6.77948C123.407 6.51414 123.145 6.71862 123.145 7.79457V7.85299C123.145 8.12563 123.145 8.39583 123.145 8.66847C123.145 8.86808 123.237 8.9484 123.427 8.94597C123.617 8.94354 123.692 8.85591 123.712 8.66116C123.731 8.46642 123.568 8.15727 123.975 8.1451C124.313 8.13293 124.413 8.34228 124.418 8.63195C124.423 8.92163 124.554 8.98005 124.79 8.95084C125.128 8.90703 124.963 8.6636 124.951 8.5005C124.929 8.16701 124.734 7.87733 124.951 7.48785C125.145 7.16166 124.839 6.87198 124.469 6.77948ZM123.965 7.71423C123.76 7.71423 123.704 7.60956 123.721 7.42699C123.721 7.16653 123.906 7.18357 124.082 7.18357C124.257 7.18357 124.42 7.24199 124.435 7.46107C124.354 7.71667 124.157 7.70693 123.965 7.71423Z" fill="#164951"/>
</g>
<defs>
<clipPath id="clip0_1_1969">
<rect width="126" height="28" fill="white"/>
</clipPath>
</defs>
</svg>
