<svg width="126" height="36" viewBox="0 0 126 36" fill="none" xmlns="http://www.w3.org/2000/svg">
<path d="M19.2439 0L9.84025 4.30412V1.10687H5.8415V6.13375L0 8.80775V13.5502L18.5369 5.06625L24.2104 9.61625L15.6879 13.517L21.8855 18.4879L30.1648 14.6991V8.75875L19.2439 0Z" fill="#164951"/>
<path d="M6.05237 25.7336L15.9049 21.2247L9.70637 16.2529L0 20.6962V26.5114L11.0434 35.3699L30.1647 26.6182V21.8757L11.7513 30.3037L6.05237 25.7336Z" fill="#164951"/>
<path d="M36.7581 9.18555V16.3754H44.8239V9.18555H47.294V26.6409H44.8239V18.8175H36.7581V26.6409H34.2871V9.18555H36.7581Z" fill="#164951"/>
<path d="M54.442 13.4503C56.6004 13.441 58.1007 13.9485 58.943 14.9728C59.7661 15.9581 60.1779 17.6918 60.1785 20.1738C60.1785 22.6466 59.7667 24.38 58.943 25.374C57.9514 26.3995 56.451 26.9122 54.442 26.9122C52.2837 26.9122 50.7737 26.3995 49.9122 25.374C49.0879 24.3788 48.6758 22.6454 48.6758 20.1738C48.6758 17.6912 49.0879 15.9575 49.9122 14.9728C50.9149 13.9479 52.4249 13.4404 54.442 13.4503ZM54.442 15.6063C53.0029 15.6063 52.0562 15.9832 51.6018 16.7368C51.2039 17.3097 51.005 18.4603 51.005 20.1887C51.005 21.8979 51.2039 23.0386 51.6018 23.6108C52.1128 24.4275 53.0595 24.8093 54.442 24.7562C55.8805 24.7463 56.8366 24.3645 57.3103 23.6108C57.669 23.0176 57.8583 21.8617 57.8782 20.1432C57.8974 18.4154 57.7081 17.2799 57.3103 16.7368C56.78 15.9528 55.8239 15.576 54.442 15.6063Z" fill="#164951"/>
<path d="M70.2222 26.6403V24.8903C69.2305 25.7029 68.3077 26.2503 67.4537 26.5327C66.658 26.8039 65.9052 26.8943 65.1953 26.8039C64.5329 26.7267 63.8968 26.4999 63.3351 26.1407C62.8147 25.7907 62.3839 25.268 62.0427 24.5727C61.7207 23.8797 61.56 23.0857 61.5605 22.1909V13.7227H64.0027V21.1689C64.0027 22.1641 64.2017 22.9428 64.5995 23.5052C65.016 24.078 65.5365 24.4096 66.1613 24.5C66.786 24.5904 67.4438 24.4948 68.1344 24.213C68.7504 23.9727 69.4417 23.5352 70.2082 22.9005V13.7227H72.6643V26.6403H70.2222Z" fill="#164951"/>
<path d="M76.503 13.7227L79.6548 24.9227L82.8223 13.7227H85.477L88.6437 24.9227L91.7963 13.7227H94.381L90.5897 26.6412H87.0389L84.1567 17.0844L81.2744 26.6412H77.7237L73.9043 13.7227H76.503Z" fill="#164951"/>
<path d="M105.845 13.7227V16.2103L98.4045 24.3644H105.845V26.6412H95.6211V24.1684L103.062 15.9985H95.6211V13.7227H105.845Z" fill="#164951"/>
<path d="M112.324 13.4661C113.374 13.4661 114.278 13.6268 115.036 13.9482C115.812 14.2702 116.413 14.7369 116.84 15.3482C117.17 15.8455 117.397 16.4044 117.507 16.9915C117.661 17.6435 117.737 18.3114 117.734 18.9812C117.734 19.6742 117.705 20.413 117.646 21.1976H109.083C109.074 22.1893 109.249 22.9931 109.608 23.6091C110.091 24.3628 111.015 24.7396 112.378 24.7396C113.883 24.7396 115.596 24.5235 117.519 24.0912V26.3067C115.331 26.7092 113.598 26.9105 112.321 26.9105C110.276 26.9105 108.827 26.4027 107.976 25.3871C107.152 24.3954 106.74 22.6621 106.74 20.187C106.74 17.7953 107.152 16.1072 107.976 15.1225C108.913 14.0142 110.362 13.4615 112.321 13.4644L112.324 13.4661ZM112.321 15.665C110.968 15.665 110.063 16.0369 109.608 16.7806C109.324 17.2624 109.149 18.0462 109.083 19.1317H115.545C115.62 18.0765 115.487 17.2928 115.146 16.7806C114.692 16.0369 113.75 15.665 112.321 15.665Z" fill="#164951"/>
<path d="M126 16.1176C125.3 16.0873 124.505 16.2078 123.615 16.479C122.724 16.7409 122.09 17.1128 121.711 17.5947V26.6404H119.268V13.7228H121.71V15.4255C122.293 14.7839 122.913 14.3268 123.57 14.0544C124.351 13.7465 125.166 13.5338 125.998 13.4209L126 16.1176Z" fill="#164951"/>
</svg>
