<svg width="120" height="24" viewBox="0 0 120 24" fill="none" xmlns="http://www.w3.org/2000/svg">
<g clip-path="url(#clip0_1_1933)">
<path fill-rule="evenodd" clip-rule="evenodd" d="M120.007 21.8346C120.026 21.6196 119.894 21.4198 119.689 21.355L118.888 21.1056C118.329 20.9416 118.13 20.2816 118.13 19.4906V1.20111V0.469375C118.13 0.157936 117.826 -0.0611727 117.531 0.0339124L111.534 1.98522C111.36 2.04172 111.236 2.19744 111.219 2.37797L111.174 2.86442C111.159 3.0477 111.252 3.21995 111.412 3.30953L112.366 3.82354C112.827 4.1212 113.123 4.51532 113.123 5.30631V7.21767V7.56631H113.091C112.367 7.4354 111.609 7.37063 111.016 7.37063C105.418 7.37063 102.19 11.3215 102.19 16.0992C102.19 20.1492 104.496 23.2443 108.249 23.2443C109.963 23.2443 111.905 22.1901 113.024 20.841H113.123V22.7689C113.123 23.0404 113.359 23.2526 113.63 23.2237L119.569 22.5939C119.785 22.5691 119.956 22.3968 119.975 22.1791L120.007 21.8346ZM113.123 18.9683C113.123 19.1102 113.06 19.248 112.947 19.3321C112.296 19.824 111.554 20.1823 110.951 20.1823C108.975 20.1823 107.558 17.8755 107.558 14.5158C107.558 10.8943 108.744 9.01738 110.159 9.01738C110.992 9.01738 111.791 9.45148 113.013 10.8943C113.084 10.977 113.123 11.0872 113.123 11.1947V18.9683ZM102.19 10.0509C102.19 8.46896 101.303 7.53461 99.9522 7.38441C99.8602 7.37338 99.0607 7.29208 98.1444 7.76613C97.0986 8.29114 96.088 9.24335 95.1179 10.2315L94.9846 10.1942V7.80881C94.9846 7.50843 94.6948 7.28656 94.4033 7.37063L88.4236 9.05875C88.2319 9.11244 88.0971 9.28473 88.0916 9.48592V10.0027C88.0971 10.2025 88.2319 10.3748 88.4236 10.4285L88.6176 10.485C89.6898 10.8075 89.9781 11.1272 89.9781 13.1681V20.6743C89.9781 21.0697 89.6485 21.2338 88.8576 21.3013L88.6457 21.3261C88.4251 21.3495 88.2545 21.5273 88.2389 21.7491L88.2007 22.2948C88.1828 22.5581 88.3916 22.784 88.6581 22.784H96.7994C97.0636 22.784 97.2747 22.5581 97.2553 22.2948L97.2186 21.7643C97.2031 21.5356 97.0215 21.355 96.794 21.3399L96.236 21.3013C95.1818 21.2021 94.9846 21.0381 94.9846 20.7101V12.428C94.9846 12.2503 94.994 12.0353 95.1412 11.892C95.9625 11.2278 96.2688 11.0472 97.0628 10.7193C97.2841 10.6242 97.528 10.7261 97.6402 10.9315C97.6402 10.9315 97.8077 11.2278 97.8755 11.3243C98.3431 12.005 98.9921 12.4597 100.071 12.4597C101.324 12.4597 102.19 11.3022 102.19 10.0509ZM87.8135 20.637C87.9148 20.4993 87.9264 20.316 87.8501 20.163L87.7316 19.926C87.6054 19.6738 87.2812 19.5925 87.0537 19.7592C86.6283 20.0748 86.248 20.2816 85.9994 20.2816C85.2748 20.2816 85.0761 19.9508 85.1423 18.734L85.3729 13.4643C85.5709 8.75416 83.0337 7.23833 79.807 7.23833C75.4934 7.23833 71.475 9.80564 71.475 12.0477C71.475 13.1336 72.43 13.8916 73.7474 13.8916C75.0318 13.8916 75.8876 12.8374 75.8876 12.0477C75.8876 10.8295 74.9656 10.2025 74.9656 10.0702C74.9656 9.93795 75.9537 9.57686 77.074 9.57686C79.3137 9.57686 80.4654 11.1892 80.4007 13.1998V13.4285C74.5054 15.0119 71.606 16.6586 71.606 19.3913C71.606 21.993 73.549 23.2774 75.7567 23.2774C77.6666 23.2774 78.9506 22.0579 80.3018 20.3132H80.4654C80.5644 22.5856 82.1781 23.3766 83.4958 23.3766C84.9646 23.3766 86.7599 22.0413 87.8135 20.637ZM80.3197 15.3909L80.2379 18.712C80.2355 18.8222 80.195 18.9256 80.1249 19.0054C79.7602 19.4285 78.9935 19.9852 78.2259 19.9852C77.1388 19.9852 76.1507 19.4575 76.1507 18.2062C76.1507 17.0031 76.7874 15.9435 79.7103 14.9499C80.0119 14.8452 80.3259 15.0739 80.3197 15.3909ZM71.1278 22.2948L71.0892 21.7505C71.074 21.53 70.9018 21.3495 70.6813 21.3261L70.4374 21.3013C69.3832 21.2021 69.1861 21.0381 69.1861 20.7101V18.7285H69.182V12.3771C69.182 10.598 68.7534 9.31364 67.9293 8.48961C67.1066 7.66691 66.0524 7.20664 65.0313 7.20664C63.1874 7.20664 61.4415 8.22639 59.4985 9.74221H59.3331V0.45835C59.3331 0.146912 59.0299 -0.0735751 58.735 0.0228881L52.7364 1.9742C52.5628 2.0307 52.4387 2.18642 52.4222 2.36695L52.3781 2.85477C52.3616 3.03667 52.4552 3.21168 52.6165 3.2985L53.5701 3.81251C54.0318 4.11155 54.328 4.50429 54.328 5.29529V20.6743C54.328 21.0697 53.9986 21.2338 53.2077 21.3013L52.9334 21.3288C52.7116 21.3496 52.5379 21.53 52.5214 21.7505L52.4842 22.2948C52.4663 22.5581 52.6758 22.784 52.9403 22.784H60.8186C61.0846 22.784 61.294 22.5581 61.2761 22.2948L61.2375 21.7505C61.2224 21.53 61.0501 21.3495 60.8297 21.3261L60.5857 21.3013C59.5315 21.2021 59.3331 21.0381 59.3331 20.7101V11.6261C59.3331 11.4703 59.4117 11.3187 59.5481 11.2388C59.9918 10.9825 60.8131 10.7289 61.4746 10.7289C63.1874 10.7289 64.1756 11.3215 64.1756 14.6164V20.6743C64.1756 20.6825 64.1756 20.6935 64.1769 20.6991C64.1618 21.0753 63.8324 21.2365 63.0593 21.3013L62.7851 21.3288C62.5632 21.3496 62.3896 21.53 62.3744 21.7505L62.3358 22.2948C62.3179 22.5581 62.5274 22.784 62.792 22.784H63.018H70.6675H70.6716C70.9362 22.784 71.1457 22.5581 71.1278 22.2948ZM52.3133 18.4377C52.3836 18.2282 52.2858 17.9995 52.0942 17.8947L51.9674 17.8272C51.7745 17.7225 51.5389 17.7735 51.3969 17.9402C50.3055 19.2232 48.8889 20.0501 47.3868 20.0501C44.8182 20.0501 43.2706 17.7115 43.2706 14.1878C43.2706 10.5649 44.752 8.91818 46.5311 8.91818C46.8604 8.91818 47.2559 9.01738 47.4199 9.11657V9.14969C46.9913 10.9604 47.8815 13.0357 49.7254 13.0357C51.0759 13.0357 52.1287 12.344 52.1287 10.762C52.1287 8.59021 50.0878 7.20664 46.5958 7.20664C41.4585 7.20664 37.9348 10.8943 37.9348 15.7685C37.9348 20.4455 41.2283 23.2774 45.2136 23.2774C48.8296 23.2774 51.2839 21.5356 52.3133 18.4377ZM37.9348 10.0509C37.9348 8.46896 37.0487 7.53461 35.6969 7.38441C35.6045 7.37338 34.8053 7.29208 33.8888 7.76613C32.8443 8.29114 31.8329 9.24335 30.8627 10.2315L30.729 10.1942V7.80881C30.729 7.50843 30.4396 7.28656 30.1475 7.37063L24.1695 9.05875C23.9766 9.11244 23.8416 9.28473 23.836 9.4832V10.0027C23.8416 10.2025 23.9766 10.3748 24.1695 10.4285L24.3625 10.485C25.4345 10.8075 25.7226 11.1272 25.7226 13.1681V20.6743C25.7226 21.0697 25.3932 21.2338 24.6036 21.3013L24.39 21.3261C24.1695 21.3495 23.9987 21.5273 23.9835 21.7491L23.9463 22.2948C23.927 22.5581 24.1364 22.784 24.4024 22.784H32.5439C32.8084 22.784 33.0193 22.5581 33.0001 22.2948L32.9642 21.7643C32.9477 21.5356 32.7657 21.355 32.5384 21.3399L31.9803 21.3013C30.9261 21.2021 30.729 21.0381 30.729 20.7101V12.428C30.729 12.2503 30.74 12.0353 30.8861 11.8893C31.7074 11.2278 32.0133 11.0472 32.8071 10.7193C33.029 10.6242 33.2743 10.7261 33.3845 10.9315C33.3845 10.9315 33.5526 11.2278 33.6202 11.3243C34.0873 12.005 34.7364 12.4597 35.8154 12.4597C37.0681 12.4597 37.9348 11.3022 37.9348 10.0509ZM22.9224 12.344C22.9224 5.95537 18.6739 1.73993 11.5935 1.73993C5.40194 1.73993 0 5.95537 0 12.705C0 19.062 4.28158 23.3091 11.3634 23.3091C17.5549 23.3091 22.9224 19.095 22.9224 12.344ZM16.9293 12.7395C16.9293 18.6995 14.6238 21.4983 11.5935 21.4983C8.46397 21.4983 5.9945 18.435 5.9945 12.3095C5.9945 6.35088 8.33306 3.55068 11.3634 3.55068C14.4916 3.55068 16.9293 6.57963 16.9293 12.7395Z" fill="#164951"/>
</g>
<defs>
<clipPath id="clip0_1_1933">
<rect width="120" height="23.3766" fill="white"/>
</clipPath>
</defs>
</svg>
