<svg width="120" height="24" viewBox="0 0 120 24" fill="none" xmlns="http://www.w3.org/2000/svg">
<g clip-path="url(#clip0_118_180)">
<path fill-rule="evenodd" clip-rule="evenodd" d="M120.007 19.8346C120.026 19.6196 119.894 19.4198 119.689 19.355L118.888 19.1056C118.329 18.9416 118.13 18.2816 118.13 17.4906V-0.798886V-1.53063C118.13 -1.84206 117.826 -2.06117 117.531 -1.96609L111.534 -0.0147792C111.36 0.0417221 111.236 0.197442 111.219 0.377971L111.174 0.864416C111.159 1.0477 111.252 1.21995 111.412 1.30953L112.366 1.82354C112.827 2.1212 113.123 2.51532 113.123 3.30631V5.21767V5.56631H113.091C112.367 5.4354 111.609 5.37063 111.016 5.37063C105.418 5.37063 102.19 9.32146 102.19 14.0992C102.19 18.1492 104.496 21.2443 108.249 21.2443C109.963 21.2443 111.905 20.1901 113.024 18.841H113.123V20.7689C113.123 21.0404 113.359 21.2526 113.63 21.2237L119.569 20.5939C119.785 20.5691 119.956 20.3968 119.975 20.1791L120.007 19.8346ZM113.123 16.9683C113.123 17.1102 113.06 17.248 112.947 17.3321C112.296 17.824 111.554 18.1823 110.951 18.1823C108.975 18.1823 107.558 15.8755 107.558 12.5158C107.558 8.89429 108.744 7.01738 110.159 7.01738C110.992 7.01738 111.791 7.45148 113.013 8.89429C113.084 8.97696 113.123 9.08722 113.123 9.19468V16.9683ZM102.19 8.05094C102.19 6.46896 101.303 5.53461 99.9522 5.38441C99.8602 5.37338 99.0607 5.29208 98.1444 5.76613C97.0986 6.29114 96.088 7.24335 95.1179 8.23148L94.9846 8.19423V5.80881C94.9846 5.50843 94.6948 5.28656 94.4033 5.37063L88.4236 7.05875C88.2319 7.11244 88.0971 7.28473 88.0916 7.48592V8.0027C88.0971 8.20249 88.2319 8.37478 88.4236 8.42855L88.6176 8.48504C89.6898 8.80748 89.9781 9.1272 89.9781 11.1681V18.6743C89.9781 19.0697 89.6485 19.2338 88.8576 19.3013L88.6457 19.3261C88.4251 19.3495 88.2545 19.5273 88.2389 19.7491L88.2007 20.2948C88.1828 20.5581 88.3916 20.784 88.6581 20.784H96.7994C97.0636 20.784 97.2747 20.5581 97.2553 20.2948L97.2186 19.7643C97.2031 19.5356 97.0215 19.355 96.794 19.3399L96.236 19.3013C95.1818 19.2021 94.9846 19.0381 94.9846 18.7101V10.428C94.9846 10.2503 94.994 10.0353 95.1412 9.892C95.9625 9.22779 96.2688 9.04725 97.0628 8.71927C97.2841 8.62421 97.528 8.72613 97.6402 8.93153C97.6402 8.93153 97.8077 9.22779 97.8755 9.32426C98.3431 10.005 98.9921 10.4597 100.071 10.4597C101.324 10.4597 102.19 9.30221 102.19 8.05094ZM87.8135 18.637C87.9148 18.4993 87.9264 18.316 87.8501 18.163L87.7316 17.926C87.6054 17.6738 87.2812 17.5925 87.0537 17.7592C86.6283 18.0748 86.248 18.2816 85.9994 18.2816C85.2748 18.2816 85.0761 17.9508 85.1423 16.734L85.3729 11.4643C85.5709 6.75416 83.0337 5.23833 79.807 5.23833C75.4934 5.23833 71.475 7.80564 71.475 10.0477C71.475 11.1336 72.43 11.8916 73.7474 11.8916C75.0318 11.8916 75.8876 10.8374 75.8876 10.0477C75.8876 8.82953 74.9656 8.20249 74.9656 8.07018C74.9656 7.93795 75.9537 7.57686 77.074 7.57686C79.3137 7.57686 80.4654 9.18922 80.4007 11.1998V11.4285C74.5054 13.0119 71.606 14.6586 71.606 17.3913C71.606 19.993 73.549 21.2774 75.7567 21.2774C77.6666 21.2774 78.9506 20.0579 80.3018 18.3132H80.4654C80.5644 20.5856 82.1781 21.3766 83.4958 21.3766C84.9646 21.3766 86.7599 20.0413 87.8135 18.637ZM80.3197 13.3909L80.2379 16.712C80.2355 16.8222 80.195 16.9256 80.1249 17.0054C79.7602 17.4285 78.9935 17.9852 78.2259 17.9852C77.1388 17.9852 76.1507 17.4575 76.1507 16.2062C76.1507 15.0031 76.7874 13.9435 79.7103 12.9499C80.0119 12.8452 80.3259 13.0739 80.3197 13.3909ZM71.1278 20.2948L71.0892 19.7505C71.074 19.53 70.9018 19.3495 70.6813 19.3261L70.4374 19.3013C69.3832 19.2021 69.1861 19.0381 69.1861 18.7101V16.7285H69.182V10.3771C69.182 8.59803 68.7534 7.31364 67.9293 6.48961C67.1066 5.66691 66.0524 5.20664 65.0313 5.20664C63.1874 5.20664 61.4415 6.22639 59.4985 7.74221H59.3331V-1.54165C59.3331 -1.85309 59.0299 -2.07358 58.735 -1.97711L52.7364 -0.0257972C52.5628 0.030704 52.4387 0.186416 52.4222 0.366946L52.3781 0.854769C52.3616 1.03667 52.4552 1.21168 52.6165 1.2985L53.5701 1.81251C54.0318 2.11155 54.328 2.50429 54.328 3.29529V18.6743C54.328 19.0697 53.9986 19.2338 53.2077 19.3013L52.9334 19.3288C52.7116 19.3496 52.5379 19.53 52.5214 19.7505L52.4842 20.2948C52.4663 20.5581 52.6758 20.784 52.9403 20.784H60.8186C61.0846 20.784 61.294 20.5581 61.2761 20.2948L61.2375 19.7505C61.2224 19.53 61.0501 19.3495 60.8297 19.3261L60.5857 19.3013C59.5315 19.2021 59.3331 19.0381 59.3331 18.7101V9.62605C59.3331 9.47029 59.4117 9.31873 59.5481 9.23878C59.9918 8.98249 60.8131 8.72894 61.4746 8.72894C63.1874 8.72894 64.1756 9.32146 64.1756 12.6164V18.6743C64.1756 18.6825 64.1756 18.6935 64.1769 18.6991C64.1618 19.0753 63.8324 19.2365 63.0593 19.3013L62.7851 19.3288C62.5632 19.3496 62.3896 19.53 62.3744 19.7505L62.3358 20.2948C62.3179 20.5581 62.5274 20.784 62.792 20.784H63.018H70.6675H70.6716C70.9362 20.784 71.1457 20.5581 71.1278 20.2948ZM52.3133 16.4377C52.3836 16.2282 52.2858 15.9995 52.0942 15.8947L51.9674 15.8272C51.7745 15.7225 51.5389 15.7735 51.3969 15.9402C50.3055 17.2232 48.8889 18.0501 47.3868 18.0501C44.8182 18.0501 43.2706 15.7115 43.2706 12.1878C43.2706 8.56491 44.752 6.91818 46.5311 6.91818C46.8604 6.91818 47.2559 7.01738 47.4199 7.11657V7.14969C46.9913 8.96044 47.8815 11.0357 49.7254 11.0357C51.0759 11.0357 52.1287 10.344 52.1287 8.76197C52.1287 6.59021 50.0878 5.20664 46.5958 5.20664C41.4585 5.20664 37.9348 8.89429 37.9348 13.7685C37.9348 18.4455 41.2283 21.2774 45.2136 21.2774C48.8296 21.2774 51.2839 19.5356 52.3133 16.4377ZM37.9348 8.05094C37.9348 6.46896 37.0487 5.53461 35.6969 5.38441C35.6045 5.37338 34.8053 5.29208 33.8888 5.76613C32.8443 6.29114 31.8329 7.24335 30.8627 8.23148L30.729 8.19423V5.80881C30.729 5.50843 30.4396 5.28656 30.1475 5.37063L24.1695 7.05875C23.9766 7.11244 23.8416 7.28473 23.836 7.4832V8.0027C23.8416 8.20249 23.9766 8.37478 24.1695 8.42855L24.3625 8.48504C25.4345 8.80748 25.7226 9.1272 25.7226 11.1681V18.6743C25.7226 19.0697 25.3932 19.2338 24.6036 19.3013L24.39 19.3261C24.1695 19.3495 23.9987 19.5273 23.9835 19.7491L23.9463 20.2948C23.927 20.5581 24.1364 20.784 24.4024 20.784H32.5439C32.8084 20.784 33.0193 20.5581 33.0001 20.2948L32.9642 19.7643C32.9477 19.5356 32.7657 19.355 32.5384 19.3399L31.9803 19.3013C30.9261 19.2021 30.729 19.0381 30.729 18.7101V10.428C30.729 10.2503 30.74 10.0353 30.8861 9.88927C31.7074 9.22779 32.0133 9.04725 32.8071 8.71927C33.029 8.62421 33.2743 8.72613 33.3845 8.93153C33.3845 8.93153 33.5526 9.22779 33.6202 9.32426C34.0873 10.005 34.7364 10.4597 35.8154 10.4597C37.0681 10.4597 37.9348 9.30221 37.9348 8.05094ZM22.9224 10.344C22.9224 3.95537 18.6739 -0.26007 11.5935 -0.26007C5.40194 -0.26007 0 3.95537 0 10.705C0 17.062 4.28158 21.3091 11.3634 21.3091C17.5549 21.3091 22.9224 17.095 22.9224 10.344ZM16.9293 10.7395C16.9293 16.6995 14.6238 19.4983 11.5935 19.4983C8.46397 19.4983 5.9945 16.435 5.9945 10.3095C5.9945 4.35088 8.33306 1.55068 11.3634 1.55068C14.4916 1.55068 16.9293 4.57963 16.9293 10.7395Z" fill="#164951"/>
</g>
<defs>
<clipPath id="clip0_118_180">
<rect width="120" height="23.3766" fill="white"/>
</clipPath>
</defs>
</svg>
