<svg width="127" height="28" viewBox="0 0 127 28" fill="none" xmlns="http://www.w3.org/2000/svg">
<path d="M92.1972 10.629C91.9806 7.82963 89.8433 5.87248 87.0415 5.84327C84.8385 5.81893 83.0736 6.64414 81.8541 8.61103C81.0118 6.66362 79.4441 5.93334 77.4724 5.84083C75.5006 5.74833 73.9183 6.47375 72.7475 8.15096C72.7475 7.61542 72.7329 7.07988 72.7475 6.54434C72.7596 6.20841 72.6744 6.05749 72.2971 6.05749C71.3648 6.0794 70.43 6.07453 69.4977 6.05749C69.1788 6.05749 69.0547 6.14025 69.0547 6.48105C69.0644 11.2457 69.0644 16.0087 69.0547 20.7701C69.0547 21.1548 69.2178 21.2156 69.5415 21.2107C70.396 21.1937 71.2455 21.1718 72.1073 21.2107C72.6379 21.2375 72.7572 21.0574 72.7523 20.5535C72.728 17.9878 72.7523 15.4221 72.7523 12.8563C72.7203 12.1218 72.8516 11.3894 73.1369 10.7118C73.692 9.53849 74.8239 8.90314 76.1895 9.00782C77.3604 9.09302 78.2659 9.87198 78.6238 11.111C78.7563 11.5995 78.8178 12.1045 78.8064 12.6105C78.8064 15.2736 78.8064 17.9367 78.7942 20.5997C78.7942 21.0671 78.8916 21.2594 79.4003 21.2327C80.2161 21.1901 81.0335 21.1901 81.8492 21.2327C82.3653 21.2594 82.5064 21.1061 82.5016 20.5851C82.4748 17.961 82.5016 15.3369 82.487 12.7127C82.4506 11.9521 82.6187 11.1956 82.9738 10.5219C83.6554 9.34374 84.7289 8.90314 86.0313 9.02729C87.2484 9.1417 87.9787 9.89876 88.3608 11.0258C88.528 11.5653 88.6053 12.1286 88.5897 12.6933C88.5897 15.3369 88.5897 17.9805 88.5775 20.6241C88.5775 21.1109 88.7211 21.257 89.2007 21.2351C90.0356 21.1986 90.873 21.201 91.708 21.2351C92.1534 21.2521 92.2703 21.0988 92.2654 20.6703C92.2459 18.6085 92.2654 16.5491 92.2654 14.4873C92.2508 13.1923 92.297 11.9046 92.1972 10.629Z" fill="#164951"/>
<path d="M50.9474 11.0012C50.8354 8.34542 49.0535 6.37611 46.6265 5.95985C44.275 5.55576 42.2181 6.06939 40.6456 8.08739V7.51777C40.6456 5.20521 40.6456 2.89267 40.6456 0.580114C40.6456 0.171158 40.5725 -0.0162844 40.1051 0.00562403C39.2312 0.0421381 38.3549 0.0372695 37.481 0.00562403C37.0574 -0.00898156 36.9625 0.14438 36.9649 0.541165C36.982 2.60056 36.9649 4.65993 36.9649 6.72177C36.9649 11.3663 36.9649 16.0133 36.9649 20.6579C36.9649 21.0863 37.0647 21.2421 37.5151 21.2226C38.35 21.1886 39.1874 21.1861 40.0224 21.2226C40.5092 21.2446 40.6553 21.1058 40.6504 20.6116C40.6261 18.1044 40.6504 15.5971 40.6504 13.0898C40.6504 12.0698 40.8671 11.1107 41.5487 10.322C41.9519 9.81401 42.4981 9.4384 43.1168 9.24359C43.7355 9.04879 44.3983 9.04373 45.0199 9.22906C46.3563 9.57229 47.0428 10.5362 47.2741 11.8483C47.3304 12.1935 47.3565 12.5429 47.352 12.8926C47.352 15.4778 47.3641 18.063 47.352 20.6482C47.352 21.0596 47.4274 21.2421 47.8899 21.2226C48.7833 21.1861 49.6791 21.208 50.5676 21.2226C50.8257 21.2226 51.018 21.208 51.0155 20.8599C50.9839 17.5688 51.0837 14.2801 50.9474 11.0012Z" fill="#164951"/>
<path d="M13.3447 0.000976562C9.12535 0.0285649 4.90596 0.0285649 0.686564 0.000976562C0.165631 0.000976562 -0.00476757 0.115384 0.000100963 0.667963C0.0268779 3.95179 0.0122721 7.24047 0.0122721 10.5194C0.0122721 13.7984 0.0122721 17.126 0.0122721 20.4293C0.0122721 20.8723 0.10234 21.0476 0.586759 21.0281C1.51665 20.9892 2.45384 20.9819 3.38616 21.0281C3.93144 21.0573 4.02151 20.848 4.01664 20.3636C3.99473 17.8587 4.01664 15.3514 3.99473 12.8441C3.99473 12.3402 4.11644 12.182 4.64225 12.1869C6.91585 12.2161 9.19189 12.1869 11.4582 12.2088C11.8988 12.2088 12.0862 12.109 12.0595 11.6294C12.0169 10.9119 12.0169 10.1926 12.0595 9.47513C12.096 8.92499 11.945 8.74485 11.3633 8.74485C9.08965 8.77893 6.81361 8.74486 4.54731 8.7692C4.0994 8.7692 3.98986 8.63288 3.99717 8.20689C4.02151 6.82909 4.02881 5.44885 3.99717 4.06863C3.99717 3.58177 4.10427 3.40408 4.63738 3.40895C7.55849 3.43816 10.4796 3.40895 13.4007 3.4333C13.8876 3.4333 14.1018 3.34566 14.0629 2.80282C14.013 2.10427 14.013 1.40304 14.0629 0.704483C14.0775 0.168944 13.9241 0.000976562 13.3447 0.000976562Z" fill="#164951"/>
<path d="M97.4584 14.3631C99.1502 14.3898 100.842 14.3752 102.536 14.3752H107.614C107.884 14.3752 108.086 14.3752 108.118 14.0028C108.451 10.1639 106.414 6.43713 102.003 5.90889C98.9627 5.54619 96.3459 6.33002 94.6005 9.03693C92.7992 11.8266 92.972 15.8334 94.9535 18.4916C96.8474 21.0305 100.221 22.0699 103.561 21.0938C105.844 20.4244 107.427 19.0052 108.101 16.6586C108.225 16.2228 108.101 16.123 107.682 16.1328C106.808 16.1571 105.932 16.1522 105.056 16.1328C104.923 16.1105 104.788 16.139 104.676 16.2126C104.564 16.2862 104.484 16.3994 104.452 16.5296C104.213 17.1558 103.739 17.6635 103.13 17.9439C102.54 18.2507 101.887 18.415 101.222 18.4233C100.558 18.4317 99.9005 18.284 99.3034 17.992C98.7062 17.7001 98.1859 17.2721 97.7843 16.7424C97.3826 16.2127 97.1109 15.5962 96.991 14.9424C96.9058 14.5067 96.991 14.3631 97.4584 14.3631ZM97.0689 11.5856C97.3488 9.81589 98.7242 8.64744 100.63 8.60119C102.592 8.5525 104.014 9.63819 104.372 11.4176C104.457 11.8363 104.372 11.9629 103.936 11.9531C102.848 11.9264 101.757 11.9531 100.669 11.9531H97.4584C97.2344 11.9507 97.0056 11.997 97.0689 11.5929V11.5856Z" fill="#164951"/>
<path d="M60.1377 5.84343C55.4956 5.81666 52.1509 9.04206 52.129 13.5746C52.1071 18.1072 55.3836 21.413 60.0038 21.4519C64.5656 21.4908 67.9298 18.2143 67.9493 13.7085C67.9736 9.15403 64.7068 5.86777 60.1377 5.84343ZM61.2842 18.0902C58.6771 18.8424 56.2575 17.2236 55.9094 14.4875C55.8184 13.8311 55.8348 13.1643 55.9581 12.5133C56.4084 10.2762 58.0491 8.94225 60.2448 9.02502C62.3431 9.10292 63.9157 10.6316 64.1786 12.8516C64.2102 13.1218 64.2151 13.3945 64.2224 13.5259C64.2127 15.8774 63.0929 17.5644 61.2842 18.0853V18.0902Z" fill="#164951"/>
<path d="M35.0707 5.87989C34.1579 5.9164 33.2426 5.90666 32.3297 5.87989C32.2594 5.86852 32.1876 5.87135 32.1184 5.88821C32.0492 5.90507 31.9841 5.93562 31.927 5.97805C31.8698 6.02048 31.8217 6.07393 31.7855 6.13526C31.7493 6.19658 31.7258 6.26453 31.7163 6.33509C31.5435 6.93149 31.3317 7.51571 31.1345 8.10481L28.4349 16.1792C28.2692 15.9796 28.1577 15.7407 28.1112 15.4855C27.0912 12.467 26.0688 9.45339 25.0708 6.42759C24.9296 5.99916 24.7275 5.85798 24.2869 5.87746C23.4714 5.91154 22.6535 5.87746 21.8356 5.87746C21.1053 5.87746 21.1053 5.87745 21.3488 6.55661C23.043 11.1687 24.7365 15.7808 26.4291 20.3929C26.5143 20.6242 26.6725 20.853 26.5678 21.1232C26.3001 21.8097 26.1126 22.5302 25.7548 23.1802C25.397 23.8301 24.8517 24.2293 24.0508 24.1855C23.6638 24.1636 23.2718 24.1855 22.8848 24.1855C22.617 24.1855 22.4953 24.2683 22.5002 24.5531C22.5115 25.2899 22.5115 26.0283 22.5002 26.7683C22.5002 27.0433 22.5975 27.1529 22.8726 27.148C23.6029 27.131 24.3502 27.148 25.0878 27.1139C26.7139 27.0507 27.8653 26.24 28.6175 24.8209C29.0238 23.9818 29.3735 23.1166 29.6642 22.2308C31.5873 16.9777 33.5144 11.7269 35.4456 6.47871C35.6233 6.04054 35.616 5.85798 35.0707 5.87989Z" fill="#164951"/>
<path d="M117.412 12.2743C116.925 12.1672 116.455 12.1015 115.975 12.0309C115.097 11.8824 114.191 11.8532 113.359 11.4856C113.118 11.3999 112.909 11.2442 112.757 11.0386C112.606 10.833 112.519 10.5868 112.509 10.3317C112.482 10.0587 112.535 9.78371 112.662 9.54031C112.788 9.29692 112.983 9.09571 113.222 8.96128C114.629 8.08982 116.693 8.79089 117.256 10.3463C117.356 10.6287 117.46 10.7577 117.774 10.7504C118.609 10.7285 119.447 10.7237 120.284 10.7504C120.683 10.7626 120.742 10.5922 120.688 10.2636C120.566 9.34857 120.179 8.48909 119.576 7.7904C117.516 5.43647 112.959 5.176 110.569 7.19644C108.507 8.93694 108.48 13.3989 111.99 14.414C112.796 14.6376 113.612 14.818 114.437 14.9544C115.182 15.0883 115.944 15.1857 116.628 15.5508C117.563 16.0547 117.738 17.1379 117.012 17.8414C115.822 19.0002 113.062 18.6228 112.465 17.0893C112.115 16.1813 111.628 16.0523 110.849 16.1496C110.732 16.1569 110.615 16.1569 110.498 16.1496C110.092 16.1496 109.68 16.1764 109.281 16.1496C108.833 16.1156 108.763 16.3127 108.824 16.6998C109.118 18.562 110.055 19.9763 111.781 20.7601C112.773 21.2227 113.852 21.4709 114.947 21.4885C116.042 21.5061 117.128 21.2928 118.135 20.8624C119.685 20.2343 120.698 19.0756 120.873 17.3716C121.194 14.0902 119.634 12.7757 117.412 12.2743Z" fill="#164951"/>
<path d="M19.259 10.5727C19.259 7.26947 19.2468 3.96375 19.259 0.660445C19.259 0.173592 19.1665 -0.028447 18.6261 0.00319835C17.7909 0.0470146 16.954 0.0470146 16.1188 0.00319835C15.6319 -0.0211444 15.4494 0.102997 15.4615 0.636101C15.4956 2.52023 15.4615 4.40679 15.4615 6.2909C15.4615 10.9971 15.4615 15.7034 15.4615 20.4096C15.4615 20.804 15.4615 21.0669 16.0019 21.0376C16.8566 20.9938 17.713 20.9938 18.5677 21.0376C19.0837 21.062 19.259 20.9305 19.2541 20.3755C19.2444 17.1039 19.259 13.8371 19.259 10.5727Z" fill="#164951"/>
<path d="M124.035 5.84328C123.503 5.84134 122.991 6.05107 122.613 6.42632C122.235 6.80157 122.021 7.31161 122.02 7.84424C122.018 8.37686 122.227 8.88845 122.603 9.26644C122.978 9.64443 123.488 9.85788 124.021 9.85982C124.284 9.86078 124.546 9.80977 124.79 9.70973C125.034 9.60969 125.256 9.46258 125.443 9.27678C125.63 9.09097 125.779 8.8701 125.88 8.62681C125.982 8.38353 126.035 8.12258 126.036 7.85885C126.037 7.59512 125.986 7.33378 125.886 7.08976C125.786 6.84574 125.639 6.62382 125.453 6.43665C125.267 6.24949 125.046 6.10075 124.803 5.99894C124.56 5.89713 124.299 5.84424 124.035 5.84328ZM124.035 9.58961C123.811 9.59193 123.589 9.54933 123.382 9.46434C123.176 9.37934 122.988 9.25367 122.83 9.09478C122.673 8.93588 122.549 8.747 122.465 8.5393C122.382 8.33161 122.341 8.10934 122.346 7.88563C122.352 7.55702 122.455 7.23753 122.642 6.96708C122.828 6.69663 123.091 6.4872 123.396 6.36497C123.701 6.24274 124.035 6.21312 124.357 6.27981C124.679 6.3465 124.974 6.50653 125.205 6.73993C125.437 6.97333 125.594 7.26976 125.658 7.59214C125.722 7.91454 125.69 8.24862 125.565 8.55264C125.44 8.85667 125.228 9.11717 124.956 9.30159C124.684 9.48602 124.364 9.5862 124.035 9.58961Z" fill="#164951"/>
<path d="M124.469 6.77802C123.407 6.51268 123.145 6.71716 123.145 7.79311V7.85153C123.145 8.12417 123.145 8.39437 123.145 8.66701C123.145 8.86662 123.237 8.94693 123.427 8.9445C123.617 8.94207 123.692 8.85445 123.712 8.6597C123.731 8.46496 123.568 8.1558 123.975 8.14363C124.313 8.13146 124.413 8.34082 124.418 8.63049C124.423 8.92017 124.554 8.97859 124.79 8.94938C125.128 8.90557 124.963 8.66213 124.951 8.49903C124.929 8.16554 124.734 7.87587 124.951 7.48639C125.145 7.1602 124.839 6.87052 124.469 6.77802ZM123.965 7.71277C123.76 7.71277 123.704 7.6081 123.721 7.42553C123.721 7.16507 123.906 7.18211 124.082 7.18211C124.257 7.18211 124.42 7.24053 124.435 7.45961C124.354 7.71521 124.157 7.70547 123.965 7.71277Z" fill="#164951"/>
</svg>
