<svg width="139" height="32" viewBox="0 0 139 32" fill="none" xmlns="http://www.w3.org/2000/svg">
<path fill-rule="evenodd" clip-rule="evenodd" d="M128.641 22.3814L128.545 21.5708C128.524 21.4353 128.069 18.2409 130.231 15.9938C130.859 15.3382 131.619 14.9627 132.313 14.9627C132.904 14.9627 133.391 15.2217 133.637 15.7157C134.832 18.1065 128.641 22.3814 128.641 22.3814ZM119.231 17.3471L119.149 15.9982L119.136 15.8288C119.135 15.7865 118.834 11.5195 119.102 8.48233C119.394 5.17926 120.357 3.04539 121.551 3.04539C121.797 3.04539 122.031 3.17146 122.214 3.40156C122.81 4.14813 122.984 6.13948 122.611 7.93364C122.01 10.7988 121.058 13.0706 120.362 14.7343C120.164 15.2048 119.99 15.6209 119.853 15.9827L119.231 17.3471ZM112.703 26.3432C111.178 26.3432 110.457 24.874 110.457 23.493C110.457 16.3672 114.37 14.9627 116.081 15.51C116.081 15.51 116.137 16.8635 116.275 18.6054C116.395 20.1181 116.503 21.9087 116.529 22.0633C116.529 22.0633 115.107 26.3432 112.703 26.3432ZM100.268 15.787C100.268 15.787 99.8336 26.3432 95.8726 26.3432C93.9746 26.3432 93.8273 24.2157 93.8273 23.563C93.8273 16.0344 99.5058 14.694 100.268 15.787ZM63.6211 26.5955C61.3488 26.5955 60.5397 24.3271 60.5397 22.2042C60.5397 18.3366 62.7799 15.3363 64.706 15.3363C66.5824 15.3363 67.2638 17.9297 67.2638 19.6724C67.2638 23.5546 65.6634 26.5955 63.6211 26.5955ZM27.4609 17.6172C26.1583 19.6555 23.1912 21.6719 22.3292 21.9932C22.3292 21.9932 21.7101 18.0009 24.9495 15.6696C27.3231 13.9615 28.4025 16.1441 27.4609 17.6172ZM126.54 26.979C127.466 28.4463 129.114 29.1611 131.443 29.1611C134.005 29.1611 136.655 27.223 138.172 25.4177C139.073 24.3469 139.171 23.7317 138.791 23.3956C138.446 23.0901 137.685 23.4898 136.987 24.1255C136.046 24.9824 134.053 26.2142 132.309 26.2142C130.194 26.2142 129.23 24.8302 129.23 24.8302C133.537 22.1853 136.709 19.1828 136.709 16.6059C136.709 13.7178 134.582 12.4264 132.474 12.4264C128.703 12.4264 124.631 15.8962 124.631 21.5025C124.631 23.3554 125.251 24.9296 125.251 24.9296C125.251 24.9296 124.503 26.1011 122.124 25.9032C119.597 25.6931 119.757 21.0924 119.757 21.0924C119.757 21.0924 120.53 19.6412 120.823 19.1007C122.533 15.9366 124.875 11.6042 125.253 6.40916C125.463 3.49827 124.645 1.93511 123.921 1.13585C123.277 0.424194 122.416 0 121.618 0C118.695 0 116.666 3.0205 116.174 6.00409C115.694 8.92987 115.888 13.2821 115.888 13.2821C115.888 13.2821 113.261 12.6281 110.625 14.4291C108.213 16.0767 107.142 19.3742 106.806 21.0385C106.652 21.7833 106.601 22.565 106.65 23.3605C106.673 23.7315 106.787 24.4461 106.787 24.4461C106.787 24.4461 105.919 26.2862 104.378 26.2862C101.896 26.2862 103.534 14.6963 103.63 14.0444C103.706 13.5195 104.025 12.3993 102.273 12.3208C101.215 12.2734 100.773 12.6714 100.693 13.1907L100.622 13.7078C100.622 13.7078 97.0316 11.2478 92.9671 15.6783C90.8019 18.0347 90.0158 21.4447 89.9803 24.1806L89.9783 24.3529C89.9783 24.3529 89.0879 26.9459 87.0155 26.5577C85.6358 26.2994 85.4622 23.8271 85.4622 22.8716C85.4622 21.0385 85.8814 18.9958 86.2188 17.3544C86.4318 16.3142 86.6166 15.4173 86.6166 14.9266C86.6166 13.1738 86.1287 12.4264 84.9867 12.4264C83.4324 12.4264 82.0373 13.6667 80.4918 15.5816C78.5194 18.0254 77.052 21.8436 77.052 21.8436C77.052 21.8436 77.1166 21.161 77.2184 20.503C77.2845 20.0774 77.4638 18.1065 77.7949 16.3168C77.9785 15.3261 78.0454 14.5151 78.0571 14.4277C78.115 13.9426 78.0062 13.5237 77.7431 13.2163C77.4843 12.9142 77.0883 12.7403 76.6574 12.7403C75.9667 12.7403 75.0781 13.2052 74.6561 14.5098C74.4634 15.0989 74.3527 15.5333 74.2154 16.233L74.086 16.8822L73.6059 16.4411C71.7038 14.6892 69.0688 12.6013 65.2904 12.6013C59.9694 12.6013 57.0976 17.5625 57.0976 22.2318C57.0976 22.8071 57.1331 23.3559 57.202 23.8641L57.2288 24.0646C57.2288 24.0646 56.118 26.7734 54.1684 26.2798C53.3148 26.0638 52.789 25.1468 52.789 22.9637C52.789 21.1472 53.1514 18.679 53.368 17.1979C53.4414 16.6952 53.5001 16.2983 53.5163 16.1134L53.5645 15.5656C53.7134 13.9168 53.7553 13.1721 53.213 12.813C52.8142 12.5524 52.3939 12.4264 51.9299 12.4264C51.4839 12.4264 51.1324 12.6344 50.8192 12.859C50.3376 13.2061 48.7618 15.3188 45.7856 20.2111C45.7374 20.2902 45.7097 20.3324 45.7069 20.3362L45.3824 20.9658L44.6016 22.6975L45.0272 20.1814L45.054 20.0168C45.1235 19.5934 45.2466 18.8475 45.2975 18.6101L45.4223 18.064C45.6233 17.1876 46.0416 15.3648 46.097 15.0427C46.2762 13.9748 46.2057 13.2614 45.881 12.8628C45.6409 12.5691 45.2396 12.4264 44.6533 12.4264C43.5737 12.4264 42.7047 13.253 41.2068 15.7028C40.9731 16.0858 40.098 17.5476 39.4065 18.7048C38.5107 20.2046 37.698 21.314 37.698 21.314L37.8869 19.3088C38.0316 18.4084 38.5731 14.273 38.5804 14.0789C38.5784 13.2069 38.1502 12.8009 37.2321 12.8009C36.8585 12.8009 35.9473 12.8839 35.5656 13.6516C35.2158 14.3533 34.245 17.5314 33.773 22.3916C33.773 22.3916 30.016 26.0542 25.9993 26.0542C24.5192 26.0542 23.3478 25.4708 22.9232 24.3312C22.9232 24.3312 25.0721 23.2004 26.0925 22.485C28.7054 20.653 30.6063 18.7861 30.6063 16.3889C30.6063 13.4557 27.9375 12.1349 25.7326 12.4264C21.9463 12.9268 18.746 16.9435 18.746 21.6093C18.746 25.9981 21.1611 29.1611 25.3641 29.1611C30.2322 29.1611 33.5926 25.0962 33.5926 25.0962L33.4913 26.9517C33.4287 27.9188 33.8223 29.1611 35.4254 29.1611C35.8511 29.1611 36.6281 29.024 37.0412 28.1053C39.535 22.589 42.1464 18.2141 42.1722 18.171L42.2615 18.0218L42.7146 17.1416L43.3892 16.002L42.8485 18.448C42.7504 19.006 41.8904 23.969 41.7672 26.1573C41.7037 27.262 41.7029 28.3492 42.1294 28.815C42.3453 29.0518 42.6925 29.1611 43.2205 29.1611C44.4009 29.1611 45.1333 28.7478 45.3974 27.9321C47.3191 22.0541 49.39 18.088 49.4774 17.9215L49.5585 17.7677L50.6452 15.6219C50.6452 15.6219 49.788 20.5172 49.788 23.8556C49.788 25.4512 50.0981 28.3561 52.3441 28.9079C55.8013 29.7577 57.9253 26.136 57.9253 26.136L58.1503 26.7705C59.1371 28.4468 60.7769 29.3334 62.8932 29.3334C67.2781 29.3334 70.1118 25.8857 70.1118 20.5489C70.1118 17.2379 68.604 15.3411 68.604 15.3411C68.604 15.3411 70.2775 15.9355 71.5065 16.8261C72.8379 17.7908 73.7836 18.8126 73.7836 18.8126L73.7505 19.0307C73.7111 19.2848 73.6756 19.5407 73.6398 19.7995C73.5015 20.8234 73.3795 21.8967 73.2759 22.9912C73.1805 24.0112 73.1313 24.9336 73.1313 25.732C73.1313 26.2171 73.1572 26.6644 73.2125 27.1008C73.2606 27.5077 73.3596 27.8788 73.5051 28.201C73.5516 28.2994 73.9879 29.1611 75.0905 29.1611C75.8265 29.1611 76.299 28.8919 76.6475 28.0722C80.0551 20.0541 82.7849 17.4845 83.0247 17.229C83.6572 16.5556 83.3717 17.8091 83.3717 17.8091L83.3468 17.974C83.3423 18.0007 82.9212 20.7164 82.8266 21.5423C82.7312 22.3569 82.6831 23.1348 82.6831 23.8556C82.6831 26.089 83.1768 28.6345 85.7613 29.0366C89.2941 29.5866 90.5182 26.7951 90.5182 26.7951C90.5182 26.7951 91.7964 29.1611 94.8143 29.1611C99.2393 29.1611 100.61 25.7449 100.61 25.7449C101.076 27.8003 101.905 28.9079 103.901 28.9079C106.061 28.9079 107.561 26.4577 107.561 26.4577C107.561 26.4577 108.81 29.1611 111.863 29.1611C115.398 29.1611 117.204 26.4362 117.279 26.3221L117.688 25.6748C117.688 25.6748 118.839 28.6147 121.806 28.7836C124.612 28.9433 126.54 26.979 126.54 26.979ZM5.29011 28.0293C2.1699 27.9128 1.99777 25.4701 4.86342 24.8394C7.48196 24.2631 9.66587 25.1855 9.66587 25.1855C9.66587 25.1855 9.0051 28.1683 5.29011 28.0293ZM19.1461 3.33664C20.9489 3.48582 20.8134 6.0112 20.3229 7.59459C18.8851 12.2362 15.4462 12.3748 15.4462 12.3748C15.4462 12.3748 16.5341 3.12054 19.1461 3.33664ZM15.1416 14.5929C15.1416 14.5929 20.9221 14.6316 22.8909 7.76601C24.0366 3.77039 22.4141 0.365056 19.0312 0.293024C15.6154 0.220324 12.9691 3.26572 11.7291 12.3676C11.7291 12.3676 8.42737 11.929 6.96877 9.30716C6.27877 8.06658 5.23771 8.64396 5.56236 9.82296C6.65988 13.8096 11.521 14.4516 11.521 14.4516C11.521 14.4516 11.3197 16.2163 11.0191 18.3767C10.7274 20.4725 10.2269 23.1095 10.2269 23.1095C10.2269 23.1095 7.15985 22.133 3.8967 22.8194C-1.11796 23.8743 -1.66971 30.1349 4.46634 30.7532C11.662 31.478 13.0207 26.4681 13.0207 26.4681C13.0207 26.4681 14.4343 27.1595 16.4404 28.9658C18.6636 30.9673 19.6795 32.2088 20.1404 31.7639C20.6458 31.2762 19.5327 29.5729 17.4721 27.401C15.1403 24.9433 13.5264 24.3089 13.5264 24.3089C13.5264 24.3089 13.9122 22.6831 14.3327 20.045C14.7779 17.2526 15.1416 14.5929 15.1416 14.5929Z" fill="#164951"/>
</svg>
