<svg width="126" height="36" viewBox="0 0 126 36" fill="none" xmlns="http://www.w3.org/2000/svg">
<path d="M19.2439 0L9.84025 4.30412V1.10687H5.8415V6.13375L0 8.80775V13.5502L18.5369 5.06625L24.2104 9.61625L15.6879 13.517L21.8855 18.4879L30.1648 14.6991V8.75875L19.2439 0Z" fill="#164951"/>
<path d="M6.05237 25.7336L15.9049 21.2247L9.70637 16.2529L0 20.6962V26.5114L11.0434 35.3699L30.1647 26.6182V21.8757L11.7513 30.3037L6.05237 25.7336Z" fill="#164951"/>
<path d="M36.7562 9.18555V16.3754H44.822V9.18555H47.2921V26.6409H44.822V18.8175H36.7562V26.6409H34.2852V9.18555H36.7562Z" fill="#164951"/>
<path d="M54.442 13.4503C56.6004 13.441 58.1007 13.9485 58.943 14.9728C59.7661 15.9581 60.1779 17.6918 60.1785 20.1738C60.1785 22.6466 59.7667 24.38 58.943 25.374C57.9514 26.3995 56.451 26.9122 54.442 26.9122C52.2837 26.9122 50.7737 26.3995 49.9122 25.374C49.0879 24.3788 48.6758 22.6454 48.6758 20.1738C48.6758 17.6912 49.0879 15.9575 49.9122 14.9728C50.9149 13.9479 52.4249 13.4404 54.442 13.4503ZM54.442 15.6063C53.0029 15.6063 52.0562 15.9832 51.6018 16.7368C51.2039 17.3097 51.005 18.4603 51.005 20.1887C51.005 21.8979 51.2039 23.0386 51.6018 23.6108C52.1128 24.4275 53.0595 24.8093 54.442 24.7562C55.8805 24.7463 56.8366 24.3645 57.3103 23.6108C57.669 23.0176 57.8583 21.8617 57.8782 20.1432C57.8974 18.4154 57.7081 17.2799 57.3103 16.7368C56.78 15.9528 55.8239 15.576 54.442 15.6063Z" fill="#164951"/>
<path d="M70.2203 26.6403V24.8903C69.2286 25.7029 68.3058 26.2503 67.4518 26.5327C66.6561 26.8039 65.9033 26.8943 65.1934 26.8039C64.531 26.7267 63.8949 26.4999 63.3332 26.1407C62.8128 25.7907 62.382 25.268 62.0408 24.5727C61.7188 23.8797 61.5581 23.0857 61.5586 22.1909V13.7227H64.0008V21.1689C64.0008 22.1641 64.1997 22.9428 64.5975 23.5052C65.014 24.078 65.5346 24.4096 66.1594 24.5C66.7841 24.5904 67.4419 24.4948 68.1325 24.213C68.7485 23.9727 69.4398 23.5352 70.2063 22.9005V13.7227H72.6624V26.6403H70.2203Z" fill="#164951"/>
<path d="M76.505 13.7227L79.6568 24.9227L82.8243 13.7227H85.479L88.6457 24.9227L91.7983 13.7227H94.3829L90.5917 26.6412H87.0409L84.1587 17.0844L81.2764 26.6412H77.7257L73.9062 13.7227H76.505Z" fill="#164951"/>
<path d="M105.845 13.7227V16.2103L98.4045 24.3644H105.845V26.6412H95.6211V24.1684L103.062 15.9985H95.6211V13.7227H105.845Z" fill="#164951"/>
<path d="M112.322 13.4661C113.372 13.4661 114.276 13.6268 115.034 13.9482C115.81 14.2702 116.411 14.7369 116.838 15.3482C117.168 15.8455 117.395 16.4044 117.505 16.9915C117.659 17.6435 117.735 18.3114 117.732 18.9812C117.732 19.6742 117.703 20.413 117.644 21.1976H109.081C109.072 22.1893 109.247 22.9931 109.606 23.6091C110.089 24.3628 111.013 24.7396 112.376 24.7396C113.881 24.7396 115.594 24.5235 117.517 24.0912V26.3067C115.329 26.7092 113.596 26.9105 112.319 26.9105C110.274 26.9105 108.825 26.4027 107.974 25.3871C107.15 24.3954 106.738 22.6621 106.738 20.187C106.738 17.7953 107.15 16.1072 107.974 15.1225C108.911 14.0142 110.36 13.4615 112.319 13.4644L112.322 13.4661ZM112.319 15.665C110.966 15.665 110.061 16.0369 109.606 16.7806C109.322 17.2624 109.147 18.0462 109.081 19.1317H115.543C115.618 18.0765 115.485 17.2928 115.144 16.7806C114.69 16.0369 113.748 15.665 112.319 15.665Z" fill="#164951"/>
<path d="M125.998 16.1176C125.298 16.0873 124.503 16.2078 123.613 16.479C122.722 16.7409 122.088 17.1128 121.709 17.5947V26.6404H119.266V13.7228H121.708V15.4255C122.291 14.7839 122.911 14.3268 123.568 14.0544C124.349 13.7465 125.164 13.5338 125.996 13.4209L125.998 16.1176Z" fill="#164951"/>
</svg>
